<svg xmlns="http://www.w3.org/2000/svg" xmlns:xlink="http://www.w3.org/1999/xlink" width="32" height="32" viewBox="0 0 217.159 208">
  <defs>
    <linearGradient id="linear-gradient" x1="0.5" x2="0.5" y2="1" gradientUnits="objectBoundingBox">
      <stop offset="0" stop-color="#0270d7"/>
      <stop offset="1" stop-color="#01386c"/>
    </linearGradient>
  </defs>
  <g id="Group_1" data-name="Group 1" transform="translate(-502.841 -377)">
    <g id="Intersection_1" data-name="Intersection 1" transform="translate(493.149 367.205)" fill="#2c3039">
      <path d="M 226.3503875732422 217.2946014404297 L 10.92915725708008 217.2946014404297 L 225.2833251953125 10.29469013214111 L 226.3503875732422 10.29469013214111 L 226.3503875732422 217.2946014404297 Z" stroke="none"/>
      <path d="M 225.8503875732422 216.7946014404297 L 225.8503875732422 10.79469013214111 L 225.4853363037109 10.79469013214111 L 12.16669940948486 216.7946014404297 L 225.8503875732422 216.7946014404297 M 226.8503875732422 217.7946014404297 L 9.691615104675293 217.7946014404297 L 225.0813140869141 9.794690132141113 L 226.8503875732422 9.794690132141113 L 226.8503875732422 217.7946014404297 Z" stroke="none" fill="#fff"/>
    </g>
    <g id="Subtraction_2" data-name="Subtraction 2" transform="translate(494.918 367.205)" fill="url(#linear-gradient)">
      <path d="M 9.350626945495605 217.2936096191406 L 9.350626945495605 10.29472541809082 L 223.8438110351562 10.29472541809082 L 9.490952491760254 217.2933197021484 L 9.350626945495605 217.2936096191406 Z" stroke="none"/>
      <path d="M 9.850626945495605 216.2509002685547 L 222.6062622070312 10.79472541809082 L 9.850626945495605 10.79472541809082 L 9.850626945495605 216.2509002685547 M 9.691627502441406 217.7946166992188 L 9.690237998962402 217.7931976318359 L 9.690544128417969 217.7929229736328 L 8.850626945495605 217.7946166992188 L 8.850626945495605 9.79472541809082 L 225.0813446044922 9.79472541809082 L 9.691627502441406 217.7946166992188 Z" stroke="none" fill="#fff"/>
    </g>
  </g>
</svg>
